<?xml version="1.0" encoding="utf-8"?>
<!-- Generator: Adobe Illustrator 19.0.0, SVG Export Plug-In . SVG Version: 6.00 Build 0)  -->
<svg version="1.1" id="Layer_1" xmlns="http://www.w3.org/2000/svg" xmlns:xlink="http://www.w3.org/1999/xlink" x="0px" y="0px"
	 width="151px" height="99.6px" viewBox="-294 248.7 151 99.6" enable-background="new -294 248.7 151 99.6" xml:space="preserve">
<g id="XMLID_86_">
</g>
<g id="XMLID_87_">
</g>
<g id="XMLID_88_">
</g>
<g id="XMLID_89_">
</g>
<g id="XMLID_90_">
</g>
<g>
	<path fill="#FFFFFF" d="M-202.7,296c0,4.1,0.7,5.1,3.8,5.1c1.9,0,3.8-0.5,3.8-0.5v-9.4c-0.3-0.1-2.2-0.3-3.8-0.3
		C-202,290.8-202.7,291.9-202.7,296z"/>
	<path fill="#FFFFFF" d="M-212.4,290.8c-3.6,0-4,0.5-4,5.2c0,4.6,0.4,5.2,4,5.2c3.6,0,4-0.5,4-5.2
		C-208.5,291.4-208.8,290.8-212.4,290.8z"/>
	<path fill="#FFFFFF" d="M-252.4,290.8c-4,0-4.1,0.7-4.3,4.2c1.9,0.3,4.1,0.2,4.1,0.2s2.3,0.1,3.9-0.1
		C-248.7,291.2-249.4,290.8-252.4,290.8z"/>
	<path fill="#FFFFFF" d="M-166.7,296.9c0-2.3-1-4.7-2-6.5c0,0-14.7-25.3-14.8-25.5l0,0l0,0c-1.6-2.6-4.4-4.3-7.6-4.5h-55.2
		c-3.2,0.2-6,1.9-7.6,4.5l0,0l0,0c-0.1,0.2-14.8,25.5-14.8,25.5c-1,1.8-2,4.1-2,6.5c0,3.4,1.6,6.4,4.1,8.2l0,0l38.5,29.3
		c3,2.2,6,3.8,9.6,3.8c3.6,0,6.5-1.6,9.6-3.8l38.5-29.3l0,0C-168.3,303.3-166.7,300.3-166.7,296.9z M-246.9,296.4
		c-0.5,0-2.2,0.2-4.2,0.2c-2,0-3.8-0.1-3.8-0.1l-0.8-0.6c-0.2-0.1-0.3-0.2-0.5-0.2c-0.5,0-0.5,0.5-0.5,0.8c0,1.1,0,2.6,0.8,3.5
		c0.7,0.7,1.9,1,3.5,1c2.5,0,4.5-0.4,4.5-0.4l0.2,1.3c0,0-1.8,0.5-4.6,0.5c-4.2,0-6.3-0.8-6.3-6.5c0-1.7,0.2-3.3,0.7-4.3
		c0.7-1.7,2.4-2.2,5.3-2.2c2.3,0,3.9,0.2,4.7,1.3c0.7,0.9,1,2.1,1,4.2C-246.8,295.4-246.9,295.9-246.9,296.4z M-235.1,284.1h2.2v2.1
		h-2.2V284.1z M-237,285.3c0,0-0.9-0.1-1.7-0.1c-0.8,0-1.7,0.1-2.1,0.5c-0.4,0.5-0.5,1.3-0.5,2.3v1.7h4v1.3h-4v9.6
		c0,0.4,0.1,0.4,0.4,0.5l0.7,0.1v1.1h-3.9v-1.1l0.7-0.1c0.3-0.1,0.4-0.2,0.4-0.5v-9.7h-2.4v-1.3h2.4v-1.7c0-1.4,0.1-2.7,1.2-3.5
		c0.7-0.5,1.8-0.6,2.8-0.6c1,0,2.1,0.2,2.1,0.2L-237,285.3z M-231.8,302.3h-3.9v-1.1l0.7-0.1c0.3-0.1,0.4-0.2,0.4-0.5v-9.3
		c0-0.4-0.1-0.4-0.4-0.5l-0.7-0.1v-1.1h2.8v11c0,0.4,0.1,0.4,0.4,0.5l0.7,0.1V302.3z M-224.1,301.1c2,0,4-0.4,4-0.4l0.2,1.3
		c0,0-2.1,0.5-4.5,0.5c-4.3,0-5.8-1.1-5.8-6.5c0-5.4,1.5-6.5,5.8-6.5c2.4,0,4.5,0.5,4.5,0.5l-0.2,1.3c0,0-2-0.4-4-0.4
		c-3.5,0-4.2,0.8-4.2,5.1C-228.3,300.3-227.6,301.1-224.1,301.1z M-212.4,302.5c-4.9,0-5.8-1.1-5.8-6.5c0-5.4,0.9-6.5,5.8-6.5
		c4.9,0,5.8,1.1,5.8,6.5C-206.7,301.3-207.5,302.5-212.4,302.5z M-192.2,302.3h-2.6l-0.1-0.7c0-0.2-0.1-0.4-0.5-0.4
		c-0.2,0-0.4,0.1-0.5,0.2l-1.3,0.9c0,0-1,0.2-2.3,0.2c-4.1,0-4.8-2.7-4.8-6.5c0-3.7,0.7-6.5,5-6.5c2.1,0,4,0.4,4.4,0.4v-4
		c0-0.4-0.1-0.4-0.4-0.5l-0.7-0.1v-1.1h2.8v16.4c0,0.4,0.1,0.4,0.4,0.5l0.7,0.1V302.3z M-179.2,296.4c-0.5,0-2.2,0.2-4.2,0.2
		c-2,0-3.8-0.1-3.8-0.1l-0.8-0.6c-0.2-0.1-0.3-0.2-0.5-0.2c-0.5,0-0.5,0.5-0.5,0.8c0,1.1,0,2.6,0.8,3.5c0.7,0.7,1.9,1,3.5,1
		c2.5,0,4.5-0.4,4.5-0.4l0.2,1.3c0,0-1.8,0.5-4.6,0.5c-4.2,0-6.3-0.8-6.3-6.5c0-1.7,0.2-3.3,0.7-4.3c0.7-1.7,2.4-2.2,5.3-2.2
		c2.3,0,3.9,0.2,4.7,1.3c0.7,0.9,1,2.1,1,4.2C-179.1,295.4-179.2,295.9-179.2,296.4z"/>
	<path fill="#FFFFFF" d="M-184.7,290.8c-4,0-4.1,0.7-4.3,4.2c1.9,0.3,4.1,0.2,4.1,0.2s2.3,0.1,3.9-0.1
		C-181,291.2-181.7,290.8-184.7,290.8z"/>
</g>
</svg>
